<svg width="43" height="43" viewBox="0 0 43 43" fill="none" xmlns="http://www.w3.org/2000/svg">
<path d="M21.5001 0.866699C10.1008 0.866699 0.860107 10.1818 0.860107 21.6728C0.860107 33.1638 10.1008 42.4789 21.5001 42.4789C32.8994 42.4789 42.1401 33.1638 42.1401 21.6728C42.1401 10.1818 32.8994 0.866699 21.5001 0.866699ZM16.4476 30.2965H12.268V16.7379H16.4476V30.2965ZM14.332 15.0734C13.0119 15.0734 12.1584 14.1306 12.1584 12.9646C12.1584 11.7747 13.0377 10.8601 14.3858 10.8601C15.7338 10.8601 16.5594 11.7747 16.5852 12.9646C16.5852 14.1306 15.7338 15.0734 14.332 15.0734ZM31.7126 30.2965H27.533V22.7825C27.533 21.0335 26.9267 19.8458 25.4153 19.8458C24.2607 19.8458 23.5749 20.6498 23.2717 21.4236C23.1599 21.6988 23.132 22.0889 23.132 22.4769V30.2943H18.9502V21.0616C18.9502 19.369 18.8965 17.9537 18.8406 16.7357H22.4719L22.6633 18.6191H22.7471C23.2975 17.7348 24.6456 16.4301 26.9009 16.4301C29.6508 16.4301 31.7126 18.2875 31.7126 22.2796V30.2965Z" fill="white"/>
</svg>
