<svg width="38" height="38" viewBox="0 0 38 38" fill="none" xmlns="http://www.w3.org/2000/svg">
<path d="M17.0209 20.6467C17.0209 19.7442 16.2767 19 15.3742 19C14.4717 19 13.7275 19.7442 13.7275 20.6467C13.7275 21.0834 13.901 21.5022 14.2098 21.811C14.5186 22.1198 14.9375 22.2933 15.3742 22.2933C15.8109 22.2933 16.2298 22.1198 16.5386 21.811C16.8474 21.5022 17.0209 21.0834 17.0209 20.6467ZM22.3092 24.3992C21.5967 25.1117 20.0767 25.365 19 25.365C17.9234 25.365 16.4034 25.1117 15.6909 24.3992C15.6524 24.3579 15.6058 24.3251 15.554 24.3026C15.5023 24.2801 15.4465 24.2685 15.39 24.2685C15.3336 24.2685 15.2778 24.2801 15.226 24.3026C15.1743 24.3251 15.1277 24.3579 15.0892 24.3992C15.048 24.4377 15.0151 24.4843 14.9926 24.536C14.9702 24.5878 14.9586 24.6436 14.9586 24.7C14.9586 24.7564 14.9702 24.8122 14.9926 24.864C15.0151 24.9157 15.048 24.9623 15.0892 25.0008C16.2134 26.125 18.3667 26.22 19 26.22C19.6334 26.22 21.7867 26.125 22.9109 25.0008C22.9521 24.9623 22.985 24.9157 23.0075 24.864C23.0299 24.8122 23.0415 24.7564 23.0415 24.7C23.0415 24.6436 23.0299 24.5878 23.0075 24.536C22.985 24.4843 22.9521 24.4377 22.9109 24.3992C22.7525 24.2408 22.4834 24.2408 22.3092 24.3992ZM22.6259 19C21.7234 19 20.9792 19.7442 20.9792 20.6467C20.9792 21.5492 21.7234 22.2933 22.6259 22.2933C23.5284 22.2933 24.2725 21.5492 24.2725 20.6467C24.2725 19.7442 23.5442 19 22.6259 19Z" fill="white"/>
<path d="M18.9998 3.16663C10.2598 3.16663 3.1665 10.26 3.1665 19C3.1665 27.74 10.2598 34.8333 18.9998 34.8333C27.7398 34.8333 34.8332 27.74 34.8332 19C34.8332 10.26 27.7398 3.16663 18.9998 3.16663ZM28.1832 21.1058C28.2148 21.3275 28.2307 21.565 28.2307 21.8025C28.2307 25.3491 24.0982 28.2308 18.9998 28.2308C13.9015 28.2308 9.769 25.3491 9.769 21.8025C9.769 21.565 9.78484 21.3275 9.8165 21.1058C9.009 20.7416 8.45484 19.9341 8.45484 19C8.45249 18.5459 8.58436 18.1013 8.83388 17.722C9.08339 17.3427 9.43944 17.0455 9.85728 16.8679C10.2751 16.6903 10.7361 16.6401 11.1824 16.7236C11.6287 16.8072 12.0404 17.0207 12.3657 17.3375C13.9648 16.1816 16.1815 15.4533 18.6357 15.3741L19.8073 9.84829C19.8232 9.73746 19.8865 9.64246 19.9815 9.59496C20.0765 9.53163 20.1873 9.51579 20.2982 9.53163L24.1298 10.355C24.2598 10.0915 24.4579 9.86753 24.7035 9.70639C24.9492 9.54525 25.2335 9.45278 25.527 9.43856C25.8204 9.42434 26.1124 9.4889 26.3725 9.62553C26.6326 9.76217 26.8514 9.9659 27.0062 10.2156C27.161 10.4653 27.2462 10.7519 27.2529 11.0456C27.2596 11.3393 27.1876 11.6295 27.0444 11.886C26.9012 12.1426 26.6919 12.3561 26.4384 12.5045C26.1848 12.6529 25.8961 12.7307 25.6023 12.73C24.7157 12.73 24.0032 12.0333 23.9557 11.1625L20.5198 10.4341L19.4748 15.3741C21.8973 15.4533 24.0665 16.1975 25.6498 17.3375C25.8926 17.1057 26.183 16.9297 26.5008 16.8219C26.8186 16.7141 27.1562 16.6771 27.4898 16.7133C27.8235 16.7496 28.1452 16.8583 28.4324 17.0319C28.7196 17.2055 28.9655 17.4398 29.1527 17.7183C29.34 17.9968 29.4641 18.3129 29.5164 18.6444C29.5687 18.9759 29.548 19.3148 29.4557 19.6375C29.3633 19.9601 29.2016 20.2587 28.9818 20.5124C28.762 20.766 28.4894 20.9685 28.1832 21.1058Z" fill="white"/>
</svg>
