<svg width="44" height="43" viewBox="0 0 44 43" fill="none" xmlns="http://www.w3.org/2000/svg">
<path d="M21.9999 0.859985C10.3355 0.859985 0.879883 10.1007 0.879883 21.5C0.879883 32.8993 10.3355 42.14 21.9999 42.14C33.6643 42.14 43.1199 32.8993 43.1199 21.5C43.1199 10.1007 33.6643 0.859985 21.9999 0.859985ZM30.5909 17.7676C30.5997 17.9439 30.6019 18.1202 30.6019 18.2922C30.6019 23.6672 26.4197 29.8613 18.7681 29.8613C16.5071 29.865 14.2932 29.2304 12.3925 28.0338C12.7159 28.0725 13.0481 28.0876 13.3847 28.0876C15.3339 28.0876 17.1269 27.4404 18.5503 26.3482C17.6829 26.3316 16.8424 26.0509 16.1459 25.5452C15.4495 25.0396 14.9318 24.3342 14.6651 23.5274C15.288 23.6432 15.9298 23.6189 16.5417 23.4565C15.6002 23.2704 14.7535 22.7719 14.1452 22.0454C13.537 21.3189 13.2045 20.4091 13.2043 19.4704V19.4209C13.7653 19.7241 14.4077 19.909 15.0897 19.9305C14.207 19.3563 13.5822 18.4742 13.343 17.4647C13.1038 16.4552 13.2682 15.3945 13.8027 14.4996C14.8476 15.7552 16.1507 16.7823 17.6275 17.5146C19.1044 18.2468 20.7222 18.6677 22.3761 18.7501C22.1658 17.8779 22.2563 16.9622 22.6335 16.1454C23.0107 15.3286 23.6534 14.6565 24.4618 14.2336C25.2702 13.8106 26.199 13.6605 27.1036 13.8066C28.0083 13.9527 28.8383 14.3868 29.4645 15.0414C30.3955 14.8614 31.2882 14.5277 32.1045 14.0545C31.7942 14.9965 31.1446 15.7964 30.2763 16.3056C31.1009 16.2085 31.9062 15.9919 32.6655 15.6627C32.1077 16.4795 31.4052 17.1923 30.5909 17.7676Z" fill="white"/>
</svg>
